{
	"accessors":[{
		"bufferView":0,
		"min":[0],
		"count":15792,
		"type":"SCALAR",
		"componentType":5123,
		"byteOffset":0,
		"max":[3163]
	},
	{
		"bufferView":1,
		"min":[4.479629993438721,
		70.24547576904297,
		31.082645416259767],
		"count":3164,
		"type":"VEC3",
		"componentType":5126,
		"byteOffset":0,
		"max":[5.9556884765625,
		115.25469970703125,
		36.92022705078125]
	},
	{
		"bufferView":1,
		"min":[-0.9821562767028809,
		-0.9987813234329224,
		-0.9729375243186951],
		"count":3164,
		"type":"VEC3",
		"componentType":5126,
		"byteOffset":12,
		"max":[0.9988125562667847,
		0.9999063014984131,
		0.9999688267707825]
	},
	{
		"bufferView":1,
		"min":[0.37977129220962527,
		0.623915433883667],
		"count":3164,
		"type":"VEC2",
		"componentType":5126,
		"byteOffset":24,
		"max":[0.41600853204727175,
		0.6601141691207886]
	},
	{
		"bufferView":2,
		"min":[0],
		"count":348660,
		"type":"SCALAR",
		"componentType":5123,
		"byteOffset":0,
		"max":[61551]
	},
	{
		"bufferView":3,
		"min":[-22.501384735107423,
		21.295804977416993,
		1.7937580347061158],
		"count":61552,
		"type":"VEC3",
		"componentType":5126,
		"byteOffset":0,
		"max":[25.819921493530275,
		155.4911346435547,
		39.00236129760742]
	},
	{
		"bufferView":3,
		"min":[-0.9999688267707825,
		-0.9999688267707825,
		-0.9999688267707825],
		"count":61552,
		"type":"VEC3",
		"componentType":5126,
		"byteOffset":12,
		"max":[0.9999688267707825,
		0.9999688267707825,
		0.9999688267707825]
	},
	{
		"bufferView":3,
		"min":[0.0057911379262804989,
		0.15856462717056275],
		"count":61552,
		"type":"VEC2",
		"componentType":5126,
		"byteOffset":24,
		"max":[0.9830378293991089,
		0.9942086935043335]
	}],
	"asset":{
		"version":"2.0",
		"generator":"Created using the official Cinema 4D glTF Exporter 1.000x284978"
	},
	"scenes":[{
		"nodes":[0]
	}],
	"nodes":[{
		"name":"Demo_dress",
		"children":[1,
		2]
	},
	{
		"name":"Demo_dress-2 button",
		"mesh":0
	},
	{
		"name":"Demo_dress-1 main",
		"mesh":1
	}],
	"meshes":[{
		"name":"Demo_dress-2 button",
		"primitives":[{
			"attributes":{
				"POSITION":1,
				"NORMAL":2,
				"TEXCOORD_0":3
			},
			"indices":0,
			"material":0
		}]
	},
	{
		"name":"Demo_dress-1 main",
		"primitives":[{
			"attributes":{
				"POSITION":5,
				"NORMAL":6,
				"TEXCOORD_0":7
			},
			"indices":4,
			"material":1
		}]
	}],
	"bufferViews":[{
		"buffer":0,
		"byteOffset":0,
		"byteLength":31584,
		"target":34963
	},
	{
		"buffer":0,
		"byteOffset":31584,
		"byteLength":101248,
		"target":34962,
		"byteStride":32
	},
	{
		"buffer":1,
		"byteOffset":0,
		"byteLength":697320,
		"target":34963
	},
	{
		"buffer":1,
		"byteOffset":697320,
		"byteLength":1969664,
		"target":34962,
		"byteStride":32
	}],
	"buffers":[{
		"uri":"data:application/octet-stream;base64,",
		"byteLength":132832
	},
	{
		"uri":"data:application/octet-stream;base64,",
		"byteLength":2666984
	}],
	"materials":[{
		"pbrMetallicRoughness":{
			"baseColorFactor":[1.0,
			1.0,
			1.0,
			1.0],
			"metallicFactor":0.0,
			"roughnessFactor":0.5153845764392246
		},
		"emissiveFactor":[0.0,
		0.0,
		0.0],
		"alphaMode":"OPAQUE",
		"doubleSided":false,
		"name":"2 button"
	},
	{
		"pbrMetallicRoughness":{
			"baseColorFactor":[1.0,
			1.0,
			1.0,
			1.0],
			"metallicFactor":0.0,
			"roughnessFactor":0.5153845764392246
		},
		"emissiveFactor":[0.0,
		0.0,
		0.0],
		"alphaMode":"OPAQUE",
		"doubleSided":false,
		"name":"1 main"
	}]
}